ISO-10303-21;
HEADER;
/* Generated by software containing ST-Developer
 * from STEP Tools, Inc. (www.steptools.com) 
 */

FILE_DESCRIPTION(
/* description */ ('KiCad electronic assembly'),
/* implementation_level */ '2;1');

FILE_NAME(
/* name */ 'blandpad-bottom.step',
/* time_stamp */ '2026-03-27T17:57:49+05:30',
/* author */ (''),
/* organization */ (''),
/* preprocessor_version */ 'ST-DEVELOPER v20.1',
/* originating_system */ 'Autodesk Translation Framework v14.24.0.0',
/* authorisation */ '');

FILE_SCHEMA (('AUTOMOTIVE_DESIGN { 1 0 10303 214 3 1 1 }'));
ENDSEC;

DATA;
#10=MECHANICAL_DESIGN_GEOMETRIC_PRESENTATION_REPRESENTATION('',(#13),#1021);
#11=SHAPE_REPRESENTATION_RELATIONSHIP('SRR','None',#1027,#12);
#12=ADVANCED_BREP_SHAPE_REPRESENTATION('',(#14),#1020);
#13=STYLED_ITEM('',(#1037),#14);
#14=MANIFOLD_SOLID_BREP('Body1',#601);
#15=FACE_BOUND('',#77,.T.);
#16=FACE_BOUND('',#78,.T.);
#17=FACE_BOUND('',#79,.T.);
#18=FACE_BOUND('',#80,.T.);
#19=FACE_BOUND('',#81,.T.);
#20=FACE_BOUND('',#110,.T.);
#21=FACE_BOUND('',#111,.T.);
#22=FACE_BOUND('',#112,.T.);
#23=FACE_BOUND('',#113,.T.);
#24=PLANE('',#606);
#25=PLANE('',#607);
#26=PLANE('',#623);
#27=PLANE('',#626);
#28=PLANE('',#629);
#29=PLANE('',#630);
#30=PLANE('',#631);
#31=PLANE('',#632);
#32=PLANE('',#633);
#33=PLANE('',#634);
#34=PLANE('',#641);
#35=PLANE('',#648);
#36=PLANE('',#656);
#37=PLANE('',#658);
#38=PLANE('',#659);
#39=PLANE('',#660);
#40=PLANE('',#661);
#41=PLANE('',#662);
#42=PLANE('',#665);
#43=FACE_OUTER_BOUND('',#74,.T.);
#44=FACE_OUTER_BOUND('',#75,.T.);
#45=FACE_OUTER_BOUND('',#76,.T.);
#46=FACE_OUTER_BOUND('',#82,.T.);
#47=FACE_OUTER_BOUND('',#83,.T.);
#48=FACE_OUTER_BOUND('',#84,.T.);
#49=FACE_OUTER_BOUND('',#85,.T.);
#50=FACE_OUTER_BOUND('',#86,.T.);
#51=FACE_OUTER_BOUND('',#87,.T.);
#52=FACE_OUTER_BOUND('',#88,.T.);
#53=FACE_OUTER_BOUND('',#89,.T.);
#54=FACE_OUTER_BOUND('',#90,.T.);
#55=FACE_OUTER_BOUND('',#91,.T.);
#56=FACE_OUTER_BOUND('',#92,.T.);
#57=FACE_OUTER_BOUND('',#93,.T.);
#58=FACE_OUTER_BOUND('',#94,.T.);
#59=FACE_OUTER_BOUND('',#95,.T.);
#60=FACE_OUTER_BOUND('',#96,.T.);
#61=FACE_OUTER_BOUND('',#97,.T.);
#62=FACE_OUTER_BOUND('',#98,.T.);
#63=FACE_OUTER_BOUND('',#99,.T.);
#64=FACE_OUTER_BOUND('',#100,.T.);
#65=FACE_OUTER_BOUND('',#101,.T.);
#66=FACE_OUTER_BOUND('',#102,.T.);
#67=FACE_OUTER_BOUND('',#103,.T.);
#68=FACE_OUTER_BOUND('',#104,.T.);
#69=FACE_OUTER_BOUND('',#105,.T.);
#70=FACE_OUTER_BOUND('',#106,.T.);
#71=FACE_OUTER_BOUND('',#107,.T.);
#72=FACE_OUTER_BOUND('',#108,.T.);
#73=FACE_OUTER_BOUND('',#109,.T.);
#74=EDGE_LOOP('',(#390,#391,#392,#393));
#75=EDGE_LOOP('',(#394,#395,#396,#397));
#76=EDGE_LOOP('',(#398,#399,#400,#401,#402,#403,#404,#405,#406,#407,#408,
#409));
#77=EDGE_LOOP('',(#410,#411,#412));
#78=EDGE_LOOP('',(#413,#414,#415,#416));
#79=EDGE_LOOP('',(#417,#418,#419));
#80=EDGE_LOOP('',(#420,#421));
#81=EDGE_LOOP('',(#422,#423));
#82=EDGE_LOOP('',(#424,#425,#426,#427));
#83=EDGE_LOOP('',(#428,#429,#430,#431,#432,#433,#434,#435));
#84=EDGE_LOOP('',(#436,#437,#438,#439));
#85=EDGE_LOOP('',(#440,#441,#442,#443));
#86=EDGE_LOOP('',(#444,#445,#446,#447));
#87=EDGE_LOOP('',(#448,#449,#450,#451));
#88=EDGE_LOOP('',(#452,#453,#454,#455));
#89=EDGE_LOOP('',(#456,#457,#458,#459));
#90=EDGE_LOOP('',(#460,#461,#462,#463));
#91=EDGE_LOOP('',(#464,#465,#466,#467));
#92=EDGE_LOOP('',(#468,#469,#470));
#93=EDGE_LOOP('',(#471,#472,#473,#474));
#94=EDGE_LOOP('',(#475,#476,#477,#478,#479,#480,#481,#482));
#95=EDGE_LOOP('',(#483,#484,#485));
#96=EDGE_LOOP('',(#486,#487,#488,#489));
#97=EDGE_LOOP('',(#490,#491,#492,#493,#494,#495,#496,#497));
#98=EDGE_LOOP('',(#498,#499));
#99=EDGE_LOOP('',(#500,#501,#502,#503));
#100=EDGE_LOOP('',(#504,#505,#506,#507,#508,#509,#510,#511));
#101=EDGE_LOOP('',(#512,#513,#514,#515));
#102=EDGE_LOOP('',(#516,#517));
#103=EDGE_LOOP('',(#518,#519,#520,#521));
#104=EDGE_LOOP('',(#522,#523,#524,#525));
#105=EDGE_LOOP('',(#526,#527,#528,#529));
#106=EDGE_LOOP('',(#530,#531,#532,#533));
#107=EDGE_LOOP('',(#534,#535,#536,#537));
#108=EDGE_LOOP('',(#538,#539,#540,#541,#542,#543,#544,#545));
#109=EDGE_LOOP('',(#546,#547,#548,#549,#550,#551,#552,#553));
#110=EDGE_LOOP('',(#554));
#111=EDGE_LOOP('',(#555));
#112=EDGE_LOOP('',(#556));
#113=EDGE_LOOP('',(#557));
#114=LINE('',#852,#166);
#115=LINE('',#855,#167);
#116=LINE('',#858,#168);
#117=LINE('',#860,#169);
#118=LINE('',#861,#170);
#119=LINE('',#864,#171);
#120=LINE('',#868,#172);
#121=LINE('',#872,#173);
#122=LINE('',#874,#174);
#123=LINE('',#876,#175);
#124=LINE('',#878,#176);
#125=LINE('',#880,#177);
#126=LINE('',#890,#178);
#127=LINE('',#892,#179);
#128=LINE('',#894,#180);
#129=LINE('',#895,#181);
#130=LINE('',#912,#182);
#131=LINE('',#916,#183);
#132=LINE('',#918,#184);
#133=LINE('',#919,#185);
#134=LINE('',#921,#186);
#135=LINE('',#922,#187);
#136=LINE('',#925,#188);
#137=LINE('',#929,#189);
#138=LINE('',#930,#190);
#139=LINE('',#933,#191);
#140=LINE('',#936,#192);
#141=LINE('',#939,#193);
#142=LINE('',#940,#194);
#143=LINE('',#943,#195);
#144=LINE('',#944,#196);
#145=LINE('',#946,#197);
#146=LINE('',#956,#198);
#147=LINE('',#957,#199);
#148=LINE('',#960,#200);
#149=LINE('',#970,#201);
#150=LINE('',#971,#202);
#151=LINE('',#974,#203);
#152=LINE('',#982,#204);
#153=LINE('',#983,#205);
#154=LINE('',#986,#206);
#155=LINE('',#990,#207);
#156=LINE('',#993,#208);
#157=LINE('',#999,#209);
#158=LINE('',#1001,#210);
#159=LINE('',#1003,#211);
#160=LINE('',#1004,#212);
#161=LINE('',#1006,#213);
#162=LINE('',#1007,#214);
#163=LINE('',#1009,#215);
#164=LINE('',#1011,#216);
#165=LINE('',#1015,#217);
#166=VECTOR('',#672,10.);
#167=VECTOR('',#675,10.);
#168=VECTOR('',#678,10.);
#169=VECTOR('',#679,10.);
#170=VECTOR('',#680,10.);
#171=VECTOR('',#683,10.);
#172=VECTOR('',#686,10.);
#173=VECTOR('',#689,10.);
#174=VECTOR('',#690,10.);
#175=VECTOR('',#691,10.);
#176=VECTOR('',#692,10.);
#177=VECTOR('',#693,10.);
#178=VECTOR('',#702,10.);
#179=VECTOR('',#703,10.);
#180=VECTOR('',#704,10.);
#181=VECTOR('',#705,10.);
#182=VECTOR('',#722,10.);
#183=VECTOR('',#727,10.);
#184=VECTOR('',#728,10.);
#185=VECTOR('',#729,10.);
#186=VECTOR('',#730,10.);
#187=VECTOR('',#731,10.);
#188=VECTOR('',#734,10.);
#189=VECTOR('',#739,10.);
#190=VECTOR('',#740,10.);
#191=VECTOR('',#743,10.);
#192=VECTOR('',#748,10.);
#193=VECTOR('',#751,10.);
#194=VECTOR('',#752,10.);
#195=VECTOR('',#755,10.);
#196=VECTOR('',#756,10.);
#197=VECTOR('',#759,10.);
#198=VECTOR('',#772,10.);
#199=VECTOR('',#773,10.);
#200=VECTOR('',#776,1.45);
#201=VECTOR('',#789,10.);
#202=VECTOR('',#790,10.);
#203=VECTOR('',#793,1.45);
#204=VECTOR('',#804,10.);
#205=VECTOR('',#805,10.);
#206=VECTOR('',#808,1.45);
#207=VECTOR('',#813,10.);
#208=VECTOR('',#816,10.);
#209=VECTOR('',#823,10.);
#210=VECTOR('',#824,10.);
#211=VECTOR('',#825,10.);
#212=VECTOR('',#826,10.);
#213=VECTOR('',#829,10.);
#214=VECTOR('',#830,10.);
#215=VECTOR('',#833,10.);
#216=VECTOR('',#836,10.);
#217=VECTOR('',#841,1.45);
#218=CIRCLE('',#604,2.);
#219=CIRCLE('',#605,2.);
#220=CIRCLE('',#608,2.);
#221=CIRCLE('',#609,2.);
#222=CIRCLE('',#610,2.);
#223=CIRCLE('',#611,1.45);
#224=CIRCLE('',#612,1.45);
#225=CIRCLE('',#613,1.45);
#226=CIRCLE('',#614,1.45);
#227=CIRCLE('',#615,1.45);
#228=CIRCLE('',#616,1.45);
#229=CIRCLE('',#617,1.45);
#230=CIRCLE('',#618,1.45);
#231=CIRCLE('',#619,1.45);
#232=CIRCLE('',#620,1.45);
#233=CIRCLE('',#622,2.);
#234=CIRCLE('',#625,2.);
#235=CIRCLE('',#628,2.);
#236=CIRCLE('',#635,1.45);
#237=CIRCLE('',#636,1.45);
#238=CIRCLE('',#637,1.45);
#239=CIRCLE('',#640,1.45);
#240=CIRCLE('',#642,1.45);
#241=CIRCLE('',#643,1.45);
#242=CIRCLE('',#644,1.45);
#243=CIRCLE('',#647,1.45);
#244=CIRCLE('',#649,1.45);
#245=CIRCLE('',#650,1.45);
#246=CIRCLE('',#653,1.45);
#247=CIRCLE('',#655,1.45);
#248=CIRCLE('',#657,1.45);
#249=CIRCLE('',#664,1.45);
#250=VERTEX_POINT('',#848);
#251=VERTEX_POINT('',#849);
#252=VERTEX_POINT('',#851);
#253=VERTEX_POINT('',#853);
#254=VERTEX_POINT('',#857);
#255=VERTEX_POINT('',#859);
#256=VERTEX_POINT('',#863);
#257=VERTEX_POINT('',#865);
#258=VERTEX_POINT('',#867);
#259=VERTEX_POINT('',#869);
#260=VERTEX_POINT('',#871);
#261=VERTEX_POINT('',#873);
#262=VERTEX_POINT('',#875);
#263=VERTEX_POINT('',#877);
#264=VERTEX_POINT('',#879);
#265=VERTEX_POINT('',#882);
#266=VERTEX_POINT('',#883);
#267=VERTEX_POINT('',#885);
#268=VERTEX_POINT('',#888);
#269=VERTEX_POINT('',#889);
#270=VERTEX_POINT('',#891);
#271=VERTEX_POINT('',#893);
#272=VERTEX_POINT('',#896);
#273=VERTEX_POINT('',#897);
#274=VERTEX_POINT('',#899);
#275=VERTEX_POINT('',#902);
#276=VERTEX_POINT('',#903);
#277=VERTEX_POINT('',#906);
#278=VERTEX_POINT('',#907);
#279=VERTEX_POINT('',#911);
#280=VERTEX_POINT('',#915);
#281=VERTEX_POINT('',#917);
#282=VERTEX_POINT('',#920);
#283=VERTEX_POINT('',#924);
#284=VERTEX_POINT('',#928);
#285=VERTEX_POINT('',#932);
#286=VERTEX_POINT('',#938);
#287=VERTEX_POINT('',#942);
#288=VERTEX_POINT('',#949);
#289=VERTEX_POINT('',#950);
#290=VERTEX_POINT('',#952);
#291=VERTEX_POINT('',#959);
#292=VERTEX_POINT('',#963);
#293=VERTEX_POINT('',#964);
#294=VERTEX_POINT('',#966);
#295=VERTEX_POINT('',#973);
#296=VERTEX_POINT('',#977);
#297=VERTEX_POINT('',#978);
#298=VERTEX_POINT('',#985);
#299=VERTEX_POINT('',#989);
#300=VERTEX_POINT('',#991);
#301=VERTEX_POINT('',#997);
#302=VERTEX_POINT('',#998);
#303=VERTEX_POINT('',#1000);
#304=VERTEX_POINT('',#1002);
#305=VERTEX_POINT('',#1014);
#306=EDGE_CURVE('',#250,#251,#218,.T.);
#307=EDGE_CURVE('',#251,#252,#114,.T.);
#308=EDGE_CURVE('',#252,#253,#219,.T.);
#309=EDGE_CURVE('',#253,#250,#115,.T.);
#310=EDGE_CURVE('',#254,#251,#116,.T.);
#311=EDGE_CURVE('',#255,#254,#117,.T.);
#312=EDGE_CURVE('',#252,#255,#118,.T.);
#313=EDGE_CURVE('',#250,#256,#119,.T.);
#314=EDGE_CURVE('',#257,#256,#220,.T.);
#315=EDGE_CURVE('',#257,#258,#120,.T.);
#316=EDGE_CURVE('',#259,#258,#221,.T.);
#317=EDGE_CURVE('',#259,#260,#121,.T.);
#318=EDGE_CURVE('',#260,#261,#122,.T.);
#319=EDGE_CURVE('',#261,#262,#123,.T.);
#320=EDGE_CURVE('',#262,#263,#124,.T.);
#321=EDGE_CURVE('',#263,#264,#125,.T.);
#322=EDGE_CURVE('',#254,#264,#222,.T.);
#323=EDGE_CURVE('',#265,#266,#223,.T.);
#324=EDGE_CURVE('',#266,#267,#224,.T.);
#325=EDGE_CURVE('',#267,#265,#225,.T.);
#326=EDGE_CURVE('',#268,#269,#126,.T.);
#327=EDGE_CURVE('',#269,#270,#127,.T.);
#328=EDGE_CURVE('',#270,#271,#128,.T.);
#329=EDGE_CURVE('',#271,#268,#129,.T.);
#330=EDGE_CURVE('',#272,#273,#226,.T.);
#331=EDGE_CURVE('',#273,#274,#227,.T.);
#332=EDGE_CURVE('',#274,#272,#228,.T.);
#333=EDGE_CURVE('',#275,#276,#229,.T.);
#334=EDGE_CURVE('',#276,#275,#230,.T.);
#335=EDGE_CURVE('',#277,#278,#231,.T.);
#336=EDGE_CURVE('',#278,#277,#232,.T.);
#337=EDGE_CURVE('',#264,#279,#130,.T.);
#338=EDGE_CURVE('',#279,#255,#233,.T.);
#339=EDGE_CURVE('',#263,#280,#131,.T.);
#340=EDGE_CURVE('',#280,#281,#132,.T.);
#341=EDGE_CURVE('',#281,#260,#133,.T.);
#342=EDGE_CURVE('',#282,#259,#134,.T.);
#343=EDGE_CURVE('',#279,#282,#135,.T.);
#344=EDGE_CURVE('',#258,#283,#136,.T.);
#345=EDGE_CURVE('',#283,#282,#234,.T.);
#346=EDGE_CURVE('',#284,#257,#137,.T.);
#347=EDGE_CURVE('',#283,#284,#138,.T.);
#348=EDGE_CURVE('',#256,#285,#139,.T.);
#349=EDGE_CURVE('',#285,#284,#235,.T.);
#350=EDGE_CURVE('',#285,#253,#140,.T.);
#351=EDGE_CURVE('',#281,#286,#141,.T.);
#352=EDGE_CURVE('',#261,#286,#142,.T.);
#353=EDGE_CURVE('',#286,#287,#143,.T.);
#354=EDGE_CURVE('',#262,#287,#144,.T.);
#355=EDGE_CURVE('',#287,#280,#145,.T.);
#356=EDGE_CURVE('',#288,#289,#236,.T.);
#357=EDGE_CURVE('',#290,#288,#237,.T.);
#358=EDGE_CURVE('',#289,#290,#238,.T.);
#359=EDGE_CURVE('',#278,#288,#146,.T.);
#360=EDGE_CURVE('',#290,#277,#147,.T.);
#361=EDGE_CURVE('',#289,#291,#148,.T.);
#362=EDGE_CURVE('',#291,#291,#239,.T.);
#363=EDGE_CURVE('',#292,#293,#240,.T.);
#364=EDGE_CURVE('',#294,#292,#241,.T.);
#365=EDGE_CURVE('',#293,#294,#242,.T.);
#366=EDGE_CURVE('',#276,#292,#149,.T.);
#367=EDGE_CURVE('',#294,#275,#150,.T.);
#368=EDGE_CURVE('',#293,#295,#151,.T.);
#369=EDGE_CURVE('',#295,#295,#243,.T.);
#370=EDGE_CURVE('',#296,#297,#244,.T.);
#371=EDGE_CURVE('',#297,#296,#245,.T.);
#372=EDGE_CURVE('',#273,#296,#152,.T.);
#373=EDGE_CURVE('',#297,#272,#153,.T.);
#374=EDGE_CURVE('',#274,#298,#154,.T.);
#375=EDGE_CURVE('',#298,#298,#246,.T.);
#376=EDGE_CURVE('',#299,#265,#155,.T.);
#377=EDGE_CURVE('',#299,#300,#247,.T.);
#378=EDGE_CURVE('',#266,#300,#156,.T.);
#379=EDGE_CURVE('',#300,#299,#248,.T.);
#380=EDGE_CURVE('',#301,#302,#157,.T.);
#381=EDGE_CURVE('',#303,#301,#158,.T.);
#382=EDGE_CURVE('',#304,#303,#159,.T.);
#383=EDGE_CURVE('',#302,#304,#160,.T.);
#384=EDGE_CURVE('',#303,#271,#161,.T.);
#385=EDGE_CURVE('',#304,#270,#162,.T.);
#386=EDGE_CURVE('',#301,#268,#163,.T.);
#387=EDGE_CURVE('',#302,#269,#164,.T.);
#388=EDGE_CURVE('',#267,#305,#165,.T.);
#389=EDGE_CURVE('',#305,#305,#249,.T.);
#390=ORIENTED_EDGE('',*,*,#306,.T.);
#391=ORIENTED_EDGE('',*,*,#307,.T.);
#392=ORIENTED_EDGE('',*,*,#308,.T.);
#393=ORIENTED_EDGE('',*,*,#309,.T.);
#394=ORIENTED_EDGE('',*,*,#307,.F.);
#395=ORIENTED_EDGE('',*,*,#310,.F.);
#396=ORIENTED_EDGE('',*,*,#311,.F.);
#397=ORIENTED_EDGE('',*,*,#312,.F.);
#398=ORIENTED_EDGE('',*,*,#306,.F.);
#399=ORIENTED_EDGE('',*,*,#313,.T.);
#400=ORIENTED_EDGE('',*,*,#314,.F.);
#401=ORIENTED_EDGE('',*,*,#315,.T.);
#402=ORIENTED_EDGE('',*,*,#316,.F.);
#403=ORIENTED_EDGE('',*,*,#317,.T.);
#404=ORIENTED_EDGE('',*,*,#318,.T.);
#405=ORIENTED_EDGE('',*,*,#319,.T.);
#406=ORIENTED_EDGE('',*,*,#320,.T.);
#407=ORIENTED_EDGE('',*,*,#321,.T.);
#408=ORIENTED_EDGE('',*,*,#322,.F.);
#409=ORIENTED_EDGE('',*,*,#310,.T.);
#410=ORIENTED_EDGE('',*,*,#323,.T.);
#411=ORIENTED_EDGE('',*,*,#324,.T.);
#412=ORIENTED_EDGE('',*,*,#325,.T.);
#413=ORIENTED_EDGE('',*,*,#326,.T.);
#414=ORIENTED_EDGE('',*,*,#327,.T.);
#415=ORIENTED_EDGE('',*,*,#328,.T.);
#416=ORIENTED_EDGE('',*,*,#329,.T.);
#417=ORIENTED_EDGE('',*,*,#330,.T.);
#418=ORIENTED_EDGE('',*,*,#331,.T.);
#419=ORIENTED_EDGE('',*,*,#332,.T.);
#420=ORIENTED_EDGE('',*,*,#333,.T.);
#421=ORIENTED_EDGE('',*,*,#334,.T.);
#422=ORIENTED_EDGE('',*,*,#335,.T.);
#423=ORIENTED_EDGE('',*,*,#336,.T.);
#424=ORIENTED_EDGE('',*,*,#322,.T.);
#425=ORIENTED_EDGE('',*,*,#337,.T.);
#426=ORIENTED_EDGE('',*,*,#338,.T.);
#427=ORIENTED_EDGE('',*,*,#311,.T.);
#428=ORIENTED_EDGE('',*,*,#337,.F.);
#429=ORIENTED_EDGE('',*,*,#321,.F.);
#430=ORIENTED_EDGE('',*,*,#339,.T.);
#431=ORIENTED_EDGE('',*,*,#340,.T.);
#432=ORIENTED_EDGE('',*,*,#341,.T.);
#433=ORIENTED_EDGE('',*,*,#317,.F.);
#434=ORIENTED_EDGE('',*,*,#342,.F.);
#435=ORIENTED_EDGE('',*,*,#343,.F.);
#436=ORIENTED_EDGE('',*,*,#316,.T.);
#437=ORIENTED_EDGE('',*,*,#344,.T.);
#438=ORIENTED_EDGE('',*,*,#345,.T.);
#439=ORIENTED_EDGE('',*,*,#342,.T.);
#440=ORIENTED_EDGE('',*,*,#344,.F.);
#441=ORIENTED_EDGE('',*,*,#315,.F.);
#442=ORIENTED_EDGE('',*,*,#346,.F.);
#443=ORIENTED_EDGE('',*,*,#347,.F.);
#444=ORIENTED_EDGE('',*,*,#314,.T.);
#445=ORIENTED_EDGE('',*,*,#348,.T.);
#446=ORIENTED_EDGE('',*,*,#349,.T.);
#447=ORIENTED_EDGE('',*,*,#346,.T.);
#448=ORIENTED_EDGE('',*,*,#309,.F.);
#449=ORIENTED_EDGE('',*,*,#350,.F.);
#450=ORIENTED_EDGE('',*,*,#348,.F.);
#451=ORIENTED_EDGE('',*,*,#313,.F.);
#452=ORIENTED_EDGE('',*,*,#341,.F.);
#453=ORIENTED_EDGE('',*,*,#351,.T.);
#454=ORIENTED_EDGE('',*,*,#352,.F.);
#455=ORIENTED_EDGE('',*,*,#318,.F.);
#456=ORIENTED_EDGE('',*,*,#319,.F.);
#457=ORIENTED_EDGE('',*,*,#352,.T.);
#458=ORIENTED_EDGE('',*,*,#353,.T.);
#459=ORIENTED_EDGE('',*,*,#354,.F.);
#460=ORIENTED_EDGE('',*,*,#339,.F.);
#461=ORIENTED_EDGE('',*,*,#320,.F.);
#462=ORIENTED_EDGE('',*,*,#354,.T.);
#463=ORIENTED_EDGE('',*,*,#355,.T.);
#464=ORIENTED_EDGE('',*,*,#340,.F.);
#465=ORIENTED_EDGE('',*,*,#355,.F.);
#466=ORIENTED_EDGE('',*,*,#353,.F.);
#467=ORIENTED_EDGE('',*,*,#351,.F.);
#468=ORIENTED_EDGE('',*,*,#356,.F.);
#469=ORIENTED_EDGE('',*,*,#357,.F.);
#470=ORIENTED_EDGE('',*,*,#358,.F.);
#471=ORIENTED_EDGE('',*,*,#359,.F.);
#472=ORIENTED_EDGE('',*,*,#335,.F.);
#473=ORIENTED_EDGE('',*,*,#360,.F.);
#474=ORIENTED_EDGE('',*,*,#357,.T.);
#475=ORIENTED_EDGE('',*,*,#359,.T.);
#476=ORIENTED_EDGE('',*,*,#356,.T.);
#477=ORIENTED_EDGE('',*,*,#361,.T.);
#478=ORIENTED_EDGE('',*,*,#362,.T.);
#479=ORIENTED_EDGE('',*,*,#361,.F.);
#480=ORIENTED_EDGE('',*,*,#358,.T.);
#481=ORIENTED_EDGE('',*,*,#360,.T.);
#482=ORIENTED_EDGE('',*,*,#336,.F.);
#483=ORIENTED_EDGE('',*,*,#363,.F.);
#484=ORIENTED_EDGE('',*,*,#364,.F.);
#485=ORIENTED_EDGE('',*,*,#365,.F.);
#486=ORIENTED_EDGE('',*,*,#366,.F.);
#487=ORIENTED_EDGE('',*,*,#333,.F.);
#488=ORIENTED_EDGE('',*,*,#367,.F.);
#489=ORIENTED_EDGE('',*,*,#364,.T.);
#490=ORIENTED_EDGE('',*,*,#366,.T.);
#491=ORIENTED_EDGE('',*,*,#363,.T.);
#492=ORIENTED_EDGE('',*,*,#368,.T.);
#493=ORIENTED_EDGE('',*,*,#369,.T.);
#494=ORIENTED_EDGE('',*,*,#368,.F.);
#495=ORIENTED_EDGE('',*,*,#365,.T.);
#496=ORIENTED_EDGE('',*,*,#367,.T.);
#497=ORIENTED_EDGE('',*,*,#334,.F.);
#498=ORIENTED_EDGE('',*,*,#370,.F.);
#499=ORIENTED_EDGE('',*,*,#371,.F.);
#500=ORIENTED_EDGE('',*,*,#372,.F.);
#501=ORIENTED_EDGE('',*,*,#330,.F.);
#502=ORIENTED_EDGE('',*,*,#373,.F.);
#503=ORIENTED_EDGE('',*,*,#371,.T.);
#504=ORIENTED_EDGE('',*,*,#372,.T.);
#505=ORIENTED_EDGE('',*,*,#370,.T.);
#506=ORIENTED_EDGE('',*,*,#373,.T.);
#507=ORIENTED_EDGE('',*,*,#332,.F.);
#508=ORIENTED_EDGE('',*,*,#374,.T.);
#509=ORIENTED_EDGE('',*,*,#375,.T.);
#510=ORIENTED_EDGE('',*,*,#374,.F.);
#511=ORIENTED_EDGE('',*,*,#331,.F.);
#512=ORIENTED_EDGE('',*,*,#376,.F.);
#513=ORIENTED_EDGE('',*,*,#377,.T.);
#514=ORIENTED_EDGE('',*,*,#378,.F.);
#515=ORIENTED_EDGE('',*,*,#323,.F.);
#516=ORIENTED_EDGE('',*,*,#379,.F.);
#517=ORIENTED_EDGE('',*,*,#377,.F.);
#518=ORIENTED_EDGE('',*,*,#380,.F.);
#519=ORIENTED_EDGE('',*,*,#381,.F.);
#520=ORIENTED_EDGE('',*,*,#382,.F.);
#521=ORIENTED_EDGE('',*,*,#383,.F.);
#522=ORIENTED_EDGE('',*,*,#382,.T.);
#523=ORIENTED_EDGE('',*,*,#384,.T.);
#524=ORIENTED_EDGE('',*,*,#328,.F.);
#525=ORIENTED_EDGE('',*,*,#385,.F.);
#526=ORIENTED_EDGE('',*,*,#381,.T.);
#527=ORIENTED_EDGE('',*,*,#386,.T.);
#528=ORIENTED_EDGE('',*,*,#329,.F.);
#529=ORIENTED_EDGE('',*,*,#384,.F.);
#530=ORIENTED_EDGE('',*,*,#383,.T.);
#531=ORIENTED_EDGE('',*,*,#385,.T.);
#532=ORIENTED_EDGE('',*,*,#327,.F.);
#533=ORIENTED_EDGE('',*,*,#387,.F.);
#534=ORIENTED_EDGE('',*,*,#380,.T.);
#535=ORIENTED_EDGE('',*,*,#387,.T.);
#536=ORIENTED_EDGE('',*,*,#326,.F.);
#537=ORIENTED_EDGE('',*,*,#386,.F.);
#538=ORIENTED_EDGE('',*,*,#376,.T.);
#539=ORIENTED_EDGE('',*,*,#325,.F.);
#540=ORIENTED_EDGE('',*,*,#388,.T.);
#541=ORIENTED_EDGE('',*,*,#389,.T.);
#542=ORIENTED_EDGE('',*,*,#388,.F.);
#543=ORIENTED_EDGE('',*,*,#324,.F.);
#544=ORIENTED_EDGE('',*,*,#378,.T.);
#545=ORIENTED_EDGE('',*,*,#379,.T.);
#546=ORIENTED_EDGE('',*,*,#308,.F.);
#547=ORIENTED_EDGE('',*,*,#312,.T.);
#548=ORIENTED_EDGE('',*,*,#338,.F.);
#549=ORIENTED_EDGE('',*,*,#343,.T.);
#550=ORIENTED_EDGE('',*,*,#345,.F.);
#551=ORIENTED_EDGE('',*,*,#347,.T.);
#552=ORIENTED_EDGE('',*,*,#349,.F.);
#553=ORIENTED_EDGE('',*,*,#350,.T.);
#554=ORIENTED_EDGE('',*,*,#375,.F.);
#555=ORIENTED_EDGE('',*,*,#389,.F.);
#556=ORIENTED_EDGE('',*,*,#369,.F.);
#557=ORIENTED_EDGE('',*,*,#362,.F.);
#558=CYLINDRICAL_SURFACE('',#603,2.);
#559=CYLINDRICAL_SURFACE('',#621,2.);
#560=CYLINDRICAL_SURFACE('',#624,2.);
#561=CYLINDRICAL_SURFACE('',#627,2.);
#562=CYLINDRICAL_SURFACE('',#638,1.45);
#563=CYLINDRICAL_SURFACE('',#639,1.45);
#564=CYLINDRICAL_SURFACE('',#645,1.45);
#565=CYLINDRICAL_SURFACE('',#646,1.45);
#566=CYLINDRICAL_SURFACE('',#651,1.45);
#567=CYLINDRICAL_SURFACE('',#652,1.45);
#568=CYLINDRICAL_SURFACE('',#654,1.45);
#569=CYLINDRICAL_SURFACE('',#663,1.45);
#570=ADVANCED_FACE('',(#43),#558,.T.);
#571=ADVANCED_FACE('',(#44),#24,.T.);
#572=ADVANCED_FACE('',(#45,#15,#16,#17,#18,#19),#25,.T.);
#573=ADVANCED_FACE('',(#46),#559,.T.);
#574=ADVANCED_FACE('',(#47),#26,.T.);
#575=ADVANCED_FACE('',(#48),#560,.T.);
#576=ADVANCED_FACE('',(#49),#27,.T.);
#577=ADVANCED_FACE('',(#50),#561,.T.);
#578=ADVANCED_FACE('',(#51),#28,.T.);
#579=ADVANCED_FACE('',(#52),#29,.F.);
#580=ADVANCED_FACE('',(#53),#30,.F.);
#581=ADVANCED_FACE('',(#54),#31,.F.);
#582=ADVANCED_FACE('',(#55),#32,.F.);
#583=ADVANCED_FACE('',(#56),#33,.T.);
#584=ADVANCED_FACE('',(#57),#562,.F.);
#585=ADVANCED_FACE('',(#58),#563,.F.);
#586=ADVANCED_FACE('',(#59),#34,.T.);
#587=ADVANCED_FACE('',(#60),#564,.F.);
#588=ADVANCED_FACE('',(#61),#565,.F.);
#589=ADVANCED_FACE('',(#62),#35,.T.);
#590=ADVANCED_FACE('',(#63),#566,.F.);
#591=ADVANCED_FACE('',(#64),#567,.F.);
#592=ADVANCED_FACE('',(#65),#568,.F.);
#593=ADVANCED_FACE('',(#66),#36,.T.);
#594=ADVANCED_FACE('',(#67),#37,.T.);
#595=ADVANCED_FACE('',(#68),#38,.T.);
#596=ADVANCED_FACE('',(#69),#39,.T.);
#597=ADVANCED_FACE('',(#70),#40,.T.);
#598=ADVANCED_FACE('',(#71),#41,.T.);
#599=ADVANCED_FACE('',(#72),#569,.F.);
#600=ADVANCED_FACE('',(#73,#20,#21,#22,#23),#42,.F.);
#601=CLOSED_SHELL('',(#570,#571,#572,#573,#574,#575,#576,#577,#578,#579,
#580,#581,#582,#583,#584,#585,#586,#587,#588,#589,#590,#591,#592,#593,#594,
#595,#596,#597,#598,#599,#600));
#602=AXIS2_PLACEMENT_3D('',#846,#666,#667);
#603=AXIS2_PLACEMENT_3D('',#847,#668,#669);
#604=AXIS2_PLACEMENT_3D('',#850,#670,#671);
#605=AXIS2_PLACEMENT_3D('',#854,#673,#674);
#606=AXIS2_PLACEMENT_3D('',#856,#676,#677);
#607=AXIS2_PLACEMENT_3D('',#862,#681,#682);
#608=AXIS2_PLACEMENT_3D('',#866,#684,#685);
#609=AXIS2_PLACEMENT_3D('',#870,#687,#688);
#610=AXIS2_PLACEMENT_3D('',#881,#694,#695);
#611=AXIS2_PLACEMENT_3D('',#884,#696,#697);
#612=AXIS2_PLACEMENT_3D('',#886,#698,#699);
#613=AXIS2_PLACEMENT_3D('',#887,#700,#701);
#614=AXIS2_PLACEMENT_3D('',#898,#706,#707);
#615=AXIS2_PLACEMENT_3D('',#900,#708,#709);
#616=AXIS2_PLACEMENT_3D('',#901,#710,#711);
#617=AXIS2_PLACEMENT_3D('',#904,#712,#713);
#618=AXIS2_PLACEMENT_3D('',#905,#714,#715);
#619=AXIS2_PLACEMENT_3D('',#908,#716,#717);
#620=AXIS2_PLACEMENT_3D('',#909,#718,#719);
#621=AXIS2_PLACEMENT_3D('',#910,#720,#721);
#622=AXIS2_PLACEMENT_3D('',#913,#723,#724);
#623=AXIS2_PLACEMENT_3D('',#914,#725,#726);
#624=AXIS2_PLACEMENT_3D('',#923,#732,#733);
#625=AXIS2_PLACEMENT_3D('',#926,#735,#736);
#626=AXIS2_PLACEMENT_3D('',#927,#737,#738);
#627=AXIS2_PLACEMENT_3D('',#931,#741,#742);
#628=AXIS2_PLACEMENT_3D('',#934,#744,#745);
#629=AXIS2_PLACEMENT_3D('',#935,#746,#747);
#630=AXIS2_PLACEMENT_3D('',#937,#749,#750);
#631=AXIS2_PLACEMENT_3D('',#941,#753,#754);
#632=AXIS2_PLACEMENT_3D('',#945,#757,#758);
#633=AXIS2_PLACEMENT_3D('',#947,#760,#761);
#634=AXIS2_PLACEMENT_3D('',#948,#762,#763);
#635=AXIS2_PLACEMENT_3D('',#951,#764,#765);
#636=AXIS2_PLACEMENT_3D('',#953,#766,#767);
#637=AXIS2_PLACEMENT_3D('',#954,#768,#769);
#638=AXIS2_PLACEMENT_3D('',#955,#770,#771);
#639=AXIS2_PLACEMENT_3D('',#958,#774,#775);
#640=AXIS2_PLACEMENT_3D('',#961,#777,#778);
#641=AXIS2_PLACEMENT_3D('',#962,#779,#780);
#642=AXIS2_PLACEMENT_3D('',#965,#781,#782);
#643=AXIS2_PLACEMENT_3D('',#967,#783,#784);
#644=AXIS2_PLACEMENT_3D('',#968,#785,#786);
#645=AXIS2_PLACEMENT_3D('',#969,#787,#788);
#646=AXIS2_PLACEMENT_3D('',#972,#791,#792);
#647=AXIS2_PLACEMENT_3D('',#975,#794,#795);
#648=AXIS2_PLACEMENT_3D('',#976,#796,#797);
#649=AXIS2_PLACEMENT_3D('',#979,#798,#799);
#650=AXIS2_PLACEMENT_3D('',#980,#800,#801);
#651=AXIS2_PLACEMENT_3D('',#981,#802,#803);
#652=AXIS2_PLACEMENT_3D('',#984,#806,#807);
#653=AXIS2_PLACEMENT_3D('',#987,#809,#810);
#654=AXIS2_PLACEMENT_3D('',#988,#811,#812);
#655=AXIS2_PLACEMENT_3D('',#992,#814,#815);
#656=AXIS2_PLACEMENT_3D('',#994,#817,#818);
#657=AXIS2_PLACEMENT_3D('',#995,#819,#820);
#658=AXIS2_PLACEMENT_3D('',#996,#821,#822);
#659=AXIS2_PLACEMENT_3D('',#1005,#827,#828);
#660=AXIS2_PLACEMENT_3D('',#1008,#831,#832);
#661=AXIS2_PLACEMENT_3D('',#1010,#834,#835);
#662=AXIS2_PLACEMENT_3D('',#1012,#837,#838);
#663=AXIS2_PLACEMENT_3D('',#1013,#839,#840);
#664=AXIS2_PLACEMENT_3D('',#1016,#842,#843);
#665=AXIS2_PLACEMENT_3D('',#1017,#844,#845);
#666=DIRECTION('axis',(0.,0.,1.));
#667=DIRECTION('refdir',(1.,0.,0.));
#668=DIRECTION('center_axis',(0.,0.,1.));
#669=DIRECTION('ref_axis',(-0.707106781186548,-0.707106781186548,0.));
#670=DIRECTION('center_axis',(0.,0.,-1.));
#671=DIRECTION('ref_axis',(-0.707106781186548,-0.707106781186548,0.));
#672=DIRECTION('',(0.,0.,-1.));
#673=DIRECTION('center_axis',(0.,0.,1.));
#674=DIRECTION('ref_axis',(-0.707106781186548,-0.707106781186548,0.));
#675=DIRECTION('',(0.,0.,1.));
#676=DIRECTION('center_axis',(-1.,0.,0.));
#677=DIRECTION('ref_axis',(0.,-1.,0.));
#678=DIRECTION('',(0.,-1.,0.));
#679=DIRECTION('',(0.,0.,1.));
#680=DIRECTION('',(0.,1.,0.));
#681=DIRECTION('center_axis',(0.,0.,1.));
#682=DIRECTION('ref_axis',(1.,0.,0.));
#683=DIRECTION('',(1.,0.,0.));
#684=DIRECTION('center_axis',(0.,0.,-1.));
#685=DIRECTION('ref_axis',(0.707106781186541,-0.707106781186554,0.));
#686=DIRECTION('',(0.,1.,0.));
#687=DIRECTION('center_axis',(0.,0.,-1.));
#688=DIRECTION('ref_axis',(0.707106781186552,0.707106781186543,0.));
#689=DIRECTION('',(-1.,0.,0.));
#690=DIRECTION('',(0.,-1.,0.));
#691=DIRECTION('',(-1.,0.,0.));
#692=DIRECTION('',(0.,1.,0.));
#693=DIRECTION('',(-1.,0.,0.));
#694=DIRECTION('center_axis',(0.,0.,-1.));
#695=DIRECTION('ref_axis',(-0.707106781186546,0.707106781186549,0.));
#696=DIRECTION('center_axis',(0.,0.,-1.));
#697=DIRECTION('ref_axis',(-1.,0.,0.));
#698=DIRECTION('center_axis',(0.,0.,-1.));
#699=DIRECTION('ref_axis',(1.,0.,0.));
#700=DIRECTION('center_axis',(0.,0.,-1.));
#701=DIRECTION('ref_axis',(1.,0.,0.));
#702=DIRECTION('',(-1.,0.,0.));
#703=DIRECTION('',(0.,1.,0.));
#704=DIRECTION('',(1.,0.,0.));
#705=DIRECTION('',(0.,-1.,0.));
#706=DIRECTION('center_axis',(0.,0.,-1.));
#707=DIRECTION('ref_axis',(-1.,0.,0.));
#708=DIRECTION('center_axis',(0.,0.,-1.));
#709=DIRECTION('ref_axis',(1.,0.,0.));
#710=DIRECTION('center_axis',(0.,0.,-1.));
#711=DIRECTION('ref_axis',(1.,0.,0.));
#712=DIRECTION('center_axis',(0.,0.,-1.));
#713=DIRECTION('ref_axis',(-1.,0.,0.));
#714=DIRECTION('center_axis',(0.,0.,-1.));
#715=DIRECTION('ref_axis',(1.,0.,0.));
#716=DIRECTION('center_axis',(0.,0.,-1.));
#717=DIRECTION('ref_axis',(-1.,0.,0.));
#718=DIRECTION('center_axis',(0.,0.,-1.));
#719=DIRECTION('ref_axis',(1.,0.,0.));
#720=DIRECTION('center_axis',(0.,0.,1.));
#721=DIRECTION('ref_axis',(-0.707106781186546,0.707106781186549,0.));
#722=DIRECTION('',(0.,0.,-1.));
#723=DIRECTION('center_axis',(0.,0.,1.));
#724=DIRECTION('ref_axis',(-0.707106781186546,0.707106781186549,0.));
#725=DIRECTION('center_axis',(0.,1.,0.));
#726=DIRECTION('ref_axis',(-1.,0.,0.));
#727=DIRECTION('',(0.,0.,-1.));
#728=DIRECTION('',(1.,0.,0.));
#729=DIRECTION('',(0.,0.,1.));
#730=DIRECTION('',(0.,0.,1.));
#731=DIRECTION('',(1.,0.,0.));
#732=DIRECTION('center_axis',(0.,0.,1.));
#733=DIRECTION('ref_axis',(0.707106781186552,0.707106781186543,0.));
#734=DIRECTION('',(0.,0.,-1.));
#735=DIRECTION('center_axis',(0.,0.,1.));
#736=DIRECTION('ref_axis',(0.707106781186552,0.707106781186543,0.));
#737=DIRECTION('center_axis',(1.,0.,0.));
#738=DIRECTION('ref_axis',(0.,1.,0.));
#739=DIRECTION('',(0.,0.,1.));
#740=DIRECTION('',(0.,-1.,0.));
#741=DIRECTION('center_axis',(0.,0.,1.));
#742=DIRECTION('ref_axis',(0.707106781186541,-0.707106781186554,0.));
#743=DIRECTION('',(0.,0.,-1.));
#744=DIRECTION('center_axis',(0.,0.,1.));
#745=DIRECTION('ref_axis',(0.707106781186541,-0.707106781186554,0.));
#746=DIRECTION('center_axis',(0.,-1.,0.));
#747=DIRECTION('ref_axis',(1.,0.,0.));
#748=DIRECTION('',(-1.,0.,0.));
#749=DIRECTION('center_axis',(1.,0.,0.));
#750=DIRECTION('ref_axis',(0.,-1.,0.));
#751=DIRECTION('',(0.,-1.,0.));
#752=DIRECTION('',(0.,0.,-1.));
#753=DIRECTION('center_axis',(0.,-1.,0.));
#754=DIRECTION('ref_axis',(-1.,0.,0.));
#755=DIRECTION('',(-1.,0.,0.));
#756=DIRECTION('',(0.,0.,-1.));
#757=DIRECTION('center_axis',(-1.,0.,0.));
#758=DIRECTION('ref_axis',(0.,1.,0.));
#759=DIRECTION('',(0.,1.,0.));
#760=DIRECTION('center_axis',(0.,0.,-1.));
#761=DIRECTION('ref_axis',(-1.,0.,0.));
#762=DIRECTION('center_axis',(0.,0.,1.));
#763=DIRECTION('ref_axis',(-1.,0.,0.));
#764=DIRECTION('center_axis',(0.,0.,1.));
#765=DIRECTION('ref_axis',(1.,0.,0.));
#766=DIRECTION('center_axis',(0.,0.,-1.));
#767=DIRECTION('ref_axis',(-1.,0.,0.));
#768=DIRECTION('center_axis',(0.,0.,1.));
#769=DIRECTION('ref_axis',(1.,0.,0.));
#770=DIRECTION('center_axis',(0.,0.,-1.));
#771=DIRECTION('ref_axis',(-1.,0.,0.));
#772=DIRECTION('',(0.,0.,-1.));
#773=DIRECTION('',(0.,0.,1.));
#774=DIRECTION('center_axis',(0.,0.,1.));
#775=DIRECTION('ref_axis',(1.,0.,0.));
#776=DIRECTION('',(0.,0.,-1.));
#777=DIRECTION('center_axis',(0.,0.,-1.));
#778=DIRECTION('ref_axis',(1.,0.,0.));
#779=DIRECTION('center_axis',(0.,0.,1.));
#780=DIRECTION('ref_axis',(-1.,0.,0.));
#781=DIRECTION('center_axis',(0.,0.,1.));
#782=DIRECTION('ref_axis',(1.,0.,0.));
#783=DIRECTION('center_axis',(0.,0.,-1.));
#784=DIRECTION('ref_axis',(-1.,0.,0.));
#785=DIRECTION('center_axis',(0.,0.,1.));
#786=DIRECTION('ref_axis',(1.,0.,0.));
#787=DIRECTION('center_axis',(0.,0.,-1.));
#788=DIRECTION('ref_axis',(-1.,0.,0.));
#789=DIRECTION('',(0.,0.,-1.));
#790=DIRECTION('',(0.,0.,1.));
#791=DIRECTION('center_axis',(0.,0.,1.));
#792=DIRECTION('ref_axis',(1.,0.,0.));
#793=DIRECTION('',(0.,0.,-1.));
#794=DIRECTION('center_axis',(0.,0.,-1.));
#795=DIRECTION('ref_axis',(1.,0.,0.));
#796=DIRECTION('center_axis',(0.,0.,1.));
#797=DIRECTION('ref_axis',(-1.,0.,0.));
#798=DIRECTION('center_axis',(0.,0.,1.));
#799=DIRECTION('ref_axis',(1.,0.,0.));
#800=DIRECTION('center_axis',(0.,0.,-1.));
#801=DIRECTION('ref_axis',(-1.,0.,0.));
#802=DIRECTION('center_axis',(0.,0.,-1.));
#803=DIRECTION('ref_axis',(0.614186912294636,0.78916058997265,0.));
#804=DIRECTION('',(0.,0.,-1.));
#805=DIRECTION('',(0.,0.,1.));
#806=DIRECTION('center_axis',(0.,0.,1.));
#807=DIRECTION('ref_axis',(1.,0.,0.));
#808=DIRECTION('',(0.,0.,-1.));
#809=DIRECTION('center_axis',(0.,0.,-1.));
#810=DIRECTION('ref_axis',(1.,0.,0.));
#811=DIRECTION('center_axis',(0.,0.,-1.));
#812=DIRECTION('ref_axis',(0.233063361339693,0.972461551734074,0.));
#813=DIRECTION('',(0.,0.,1.));
#814=DIRECTION('center_axis',(0.,0.,-1.));
#815=DIRECTION('ref_axis',(-1.,0.,0.));
#816=DIRECTION('',(0.,0.,-1.));
#817=DIRECTION('center_axis',(0.,0.,1.));
#818=DIRECTION('ref_axis',(-1.,0.,0.));
#819=DIRECTION('center_axis',(0.,0.,1.));
#820=DIRECTION('ref_axis',(1.,0.,0.));
#821=DIRECTION('center_axis',(0.,0.,1.));
#822=DIRECTION('ref_axis',(1.,0.,0.));
#823=DIRECTION('',(-1.,0.,0.));
#824=DIRECTION('',(0.,-1.,0.));
#825=DIRECTION('',(1.,0.,0.));
#826=DIRECTION('',(0.,1.,0.));
#827=DIRECTION('center_axis',(0.,-1.,0.));
#828=DIRECTION('ref_axis',(1.,0.,0.));
#829=DIRECTION('',(0.,0.,1.));
#830=DIRECTION('',(0.,0.,1.));
#831=DIRECTION('center_axis',(-1.,0.,0.));
#832=DIRECTION('ref_axis',(0.,-1.,0.));
#833=DIRECTION('',(0.,0.,1.));
#834=DIRECTION('center_axis',(1.,0.,0.));
#835=DIRECTION('ref_axis',(0.,1.,0.));
#836=DIRECTION('',(0.,0.,1.));
#837=DIRECTION('center_axis',(0.,1.,0.));
#838=DIRECTION('ref_axis',(-1.,0.,0.));
#839=DIRECTION('center_axis',(0.,0.,1.));
#840=DIRECTION('ref_axis',(1.,0.,0.));
#841=DIRECTION('',(0.,0.,-1.));
#842=DIRECTION('center_axis',(0.,0.,-1.));
#843=DIRECTION('ref_axis',(1.,0.,0.));
#844=DIRECTION('center_axis',(0.,0.,1.));
#845=DIRECTION('ref_axis',(1.,0.,0.));
#846=CARTESIAN_POINT('',(0.,0.,0.));
#847=CARTESIAN_POINT('Origin',(95.7635302227206,-119.690902322243,-5.36742679516834));
#848=CARTESIAN_POINT('',(95.7635302227206,-121.690902322243,7.63257320483166));
#849=CARTESIAN_POINT('',(93.7635302227206,-119.690902322243,7.63257320483166));
#850=CARTESIAN_POINT('Origin',(95.7635302227206,-119.690902322243,7.63257320483166));
#851=CARTESIAN_POINT('',(93.7635302227206,-119.690902322243,-5.36742679516834));
#852=CARTESIAN_POINT('',(93.7635302227206,-119.690902322243,-5.36742679516834));
#853=CARTESIAN_POINT('',(95.7635302227206,-121.690902322243,-5.36742679516834));
#854=CARTESIAN_POINT('Origin',(95.7635302227206,-119.690902322243,-5.36742679516834));
#855=CARTESIAN_POINT('',(95.7635302227206,-121.690902322243,-5.36742679516834));
#856=CARTESIAN_POINT('Origin',(93.7635302227206,-23.2909023222426,-5.36742679516834));
#857=CARTESIAN_POINT('',(93.7635302227206,-25.2909023222426,7.63257320483166));
#858=CARTESIAN_POINT('',(93.7635302227206,-121.690902322243,7.63257320483166));
#859=CARTESIAN_POINT('',(93.7635302227206,-25.2909023222426,-5.36742679516834));
#860=CARTESIAN_POINT('',(93.7635302227206,-25.2909023222426,-5.36742679516834));
#861=CARTESIAN_POINT('',(93.7635302227206,-121.690902322243,-5.36742679516834));
#862=CARTESIAN_POINT('Origin',(138.963530222721,-72.4909023222426,7.63257320483166));
#863=CARTESIAN_POINT('',(182.163530222721,-121.690902322243,7.63257320483166));
#864=CARTESIAN_POINT('',(184.163530222721,-121.690902322243,7.63257320483166));
#865=CARTESIAN_POINT('',(184.163530222721,-119.690902322243,7.63257320483166));
#866=CARTESIAN_POINT('Origin',(182.163530222721,-119.690902322243,7.63257320483166));
#867=CARTESIAN_POINT('',(184.163530222721,-25.2909023222426,7.63257320483166));
#868=CARTESIAN_POINT('',(184.163530222721,-23.2909023222426,7.63257320483166));
#869=CARTESIAN_POINT('',(182.163530222721,-23.2909023222426,7.63257320483166));
#870=CARTESIAN_POINT('Origin',(182.163530222721,-25.2909023222426,7.63257320483166));
#871=CARTESIAN_POINT('',(148.000002205372,-23.2909023222426,7.63257320483166));
#872=CARTESIAN_POINT('',(93.7635302227206,-23.2909023222426,7.63257320483166));
#873=CARTESIAN_POINT('',(148.000002205372,-33.0000004917383,7.63257320483166));
#874=CARTESIAN_POINT('',(148.000002205372,-47.7454513324847,7.63257320483166));
#875=CARTESIAN_POINT('',(130.000001937151,-33.0000004917383,7.63257320483166));
#876=CARTESIAN_POINT('',(143.481766214046,-33.0000004917383,7.63257320483166));
#877=CARTESIAN_POINT('',(130.000001937151,-23.2909023222426,7.63257320483166));
#878=CARTESIAN_POINT('',(130.000001937151,-52.7454514069905,7.63257320483166));
#879=CARTESIAN_POINT('',(95.7635302227206,-23.2909023222426,7.63257320483166));
#880=CARTESIAN_POINT('',(93.7635302227206,-23.2909023222426,7.63257320483166));
#881=CARTESIAN_POINT('Origin',(95.7635302227206,-25.2909023222426,7.63257320483166));
#882=CARTESIAN_POINT('',(97.3625813817552,-27.9169473182679,7.63257320483166));
#883=CARTESIAN_POINT('',(100.181794281212,-28.5926092336496,7.63257320483166));
#884=CARTESIAN_POINT('Origin',(98.7808454402468,-28.2186542296751,7.63257320483166));
#885=CARTESIAN_POINT('',(97.3135302227206,-28.2909023222426,7.63257320483166));
#886=CARTESIAN_POINT('Origin',(98.7635302227206,-28.2909023222426,7.63257320483166));
#887=CARTESIAN_POINT('Origin',(98.7635302227206,-28.2909023222426,7.63257320483166));
#888=CARTESIAN_POINT('',(174.163530222721,-111.690902322243,7.63257320483166));
#889=CARTESIAN_POINT('',(103.763530222721,-111.690902322243,7.63257320483166));
#890=CARTESIAN_POINT('',(174.163530222721,-111.690902322243,7.63257320483166));
#891=CARTESIAN_POINT('',(103.763530222721,-33.2909023222426,7.63257320483166));
#892=CARTESIAN_POINT('',(103.763530222721,-111.690902322243,7.63257320483166));
#893=CARTESIAN_POINT('',(174.163530222721,-33.2909023222426,7.63257320483166));
#894=CARTESIAN_POINT('',(103.763530222721,-33.2909023222426,7.63257320483166));
#895=CARTESIAN_POINT('',(174.163530222721,-33.2909023222426,7.63257320483166));
#896=CARTESIAN_POINT('',(97.6279590480254,-115.789249336221,7.63257320483166));
#897=CARTESIAN_POINT('',(99.9164166149423,-117.570307215696,7.63257320483166));
#898=CARTESIAN_POINT('Origin',(98.7808454402468,-116.668654229675,7.63257320483166));
#899=CARTESIAN_POINT('',(97.3135302227206,-116.690902322243,7.63257320483166));
#900=CARTESIAN_POINT('Origin',(98.7635302227206,-116.690902322243,7.63257320483166));
#901=CARTESIAN_POINT('Origin',(98.7635302227206,-116.690902322243,7.63257320483166));
#902=CARTESIAN_POINT('',(178.331351474145,-117.878327490587,7.63257320483166));
#903=CARTESIAN_POINT('',(179.963024188822,-115.48122906133,7.63257320483166));
#904=CARTESIAN_POINT('Origin',(179.130845440247,-116.668654229675,7.63257320483166));
#905=CARTESIAN_POINT('Origin',(179.163530222721,-116.690902322243,7.63257320483166));
#906=CARTESIAN_POINT('',(177.826583024148,-28.8522152369592,7.63257320483166));
#907=CARTESIAN_POINT('',(180.46779263882,-27.6573413149585,7.63257320483166));
#908=CARTESIAN_POINT('Origin',(179.130845440247,-28.2186542296751,7.63257320483166));
#909=CARTESIAN_POINT('Origin',(179.163530222721,-28.2909023222426,7.63257320483166));
#910=CARTESIAN_POINT('Origin',(95.7635302227206,-25.2909023222426,-5.36742679516834));
#911=CARTESIAN_POINT('',(95.7635302227206,-23.2909023222426,-5.36742679516834));
#912=CARTESIAN_POINT('',(95.7635302227206,-23.2909023222426,-5.36742679516834));
#913=CARTESIAN_POINT('Origin',(95.7635302227206,-25.2909023222426,-5.36742679516834));
#914=CARTESIAN_POINT('Origin',(184.163530222721,-23.2909023222426,-5.36742679516834));
#915=CARTESIAN_POINT('',(130.000001937151,-23.2909023222426,2.46901555983437));
#916=CARTESIAN_POINT('',(130.000001937151,-23.2909023222426,3.55079438233302));
#917=CARTESIAN_POINT('',(148.000002205372,-23.2909023222426,2.46901555983437));
#918=CARTESIAN_POINT('',(161.581766146991,-23.2909023222426,2.46901555983437));
#919=CARTESIAN_POINT('',(148.000002205372,-23.2909023222426,3.55079438233302));
#920=CARTESIAN_POINT('',(182.163530222721,-23.2909023222426,-5.36742679516834));
#921=CARTESIAN_POINT('',(182.163530222721,-23.2909023222426,-5.36742679516834));
#922=CARTESIAN_POINT('',(93.7635302227206,-23.2909023222426,-5.36742679516834));
#923=CARTESIAN_POINT('Origin',(182.163530222721,-25.2909023222426,-5.36742679516834));
#924=CARTESIAN_POINT('',(184.163530222721,-25.2909023222426,-5.36742679516834));
#925=CARTESIAN_POINT('',(184.163530222721,-25.2909023222426,-5.36742679516834));
#926=CARTESIAN_POINT('Origin',(182.163530222721,-25.2909023222426,-5.36742679516834));
#927=CARTESIAN_POINT('Origin',(184.163530222721,-121.690902322243,-5.36742679516834));
#928=CARTESIAN_POINT('',(184.163530222721,-119.690902322243,-5.36742679516834));
#929=CARTESIAN_POINT('',(184.163530222721,-119.690902322243,-5.36742679516834));
#930=CARTESIAN_POINT('',(184.163530222721,-23.2909023222426,-5.36742679516834));
#931=CARTESIAN_POINT('Origin',(182.163530222721,-119.690902322243,-5.36742679516834));
#932=CARTESIAN_POINT('',(182.163530222721,-121.690902322243,-5.36742679516834));
#933=CARTESIAN_POINT('',(182.163530222721,-121.690902322243,-5.36742679516834));
#934=CARTESIAN_POINT('Origin',(182.163530222721,-119.690902322243,-5.36742679516834));
#935=CARTESIAN_POINT('Origin',(93.7635302227206,-121.690902322243,-5.36742679516834));
#936=CARTESIAN_POINT('',(184.163530222721,-121.690902322243,-5.36742679516834));
#937=CARTESIAN_POINT('Origin',(148.000002205372,-23.0000003427267,12.4690155598344));
#938=CARTESIAN_POINT('',(148.000002205372,-33.0000004917383,2.46901555983437));
#939=CARTESIAN_POINT('',(148.000002205372,-23.0000003427267,2.46901555983437));
#940=CARTESIAN_POINT('',(148.000002205372,-33.0000004917383,12.4690155598344));
#941=CARTESIAN_POINT('Origin',(148.000002205372,-33.0000004917383,12.4690155598344));
#942=CARTESIAN_POINT('',(130.000001937151,-33.0000004917383,2.46901555983437));
#943=CARTESIAN_POINT('',(148.000002205372,-33.0000004917383,2.46901555983437));
#944=CARTESIAN_POINT('',(130.000001937151,-33.0000004917383,12.4690155598344));
#945=CARTESIAN_POINT('Origin',(130.000001937151,-33.0000004917383,12.4690155598344));
#946=CARTESIAN_POINT('',(130.000001937151,-33.0000004917383,2.46901555983437));
#947=CARTESIAN_POINT('Origin',(139.000002071261,-28.0000004172325,2.46901555983437));
#948=CARTESIAN_POINT('Origin',(179.130845440247,-28.2186542296751,-3.53098444016563));
#949=CARTESIAN_POINT('',(180.46779263882,-27.6573413149585,-3.53098444016563));
#950=CARTESIAN_POINT('',(177.713530222721,-28.2909023222426,-3.53098444016563));
#951=CARTESIAN_POINT('Origin',(179.163530222721,-28.2909023222426,-3.53098444016563));
#952=CARTESIAN_POINT('',(177.826583024148,-28.8522152369592,-3.53098444016563));
#953=CARTESIAN_POINT('Origin',(179.130845440247,-28.2186542296751,-3.53098444016563));
#954=CARTESIAN_POINT('Origin',(179.163530222721,-28.2909023222426,-3.53098444016563));
#955=CARTESIAN_POINT('Origin',(179.130845440247,-28.2186542296751,12.4690155598344));
#956=CARTESIAN_POINT('',(180.46779263882,-27.6573413149585,12.4690155598344));
#957=CARTESIAN_POINT('',(177.826583024148,-28.8522152369592,12.4690155598344));
#958=CARTESIAN_POINT('Origin',(179.163530222721,-28.2909023222426,-5.36742679516834));
#959=CARTESIAN_POINT('',(177.713530222721,-28.2909023222426,-5.36742679516834));
#960=CARTESIAN_POINT('',(177.713530222721,-28.2909023222426,-5.36742679516834));
#961=CARTESIAN_POINT('Origin',(179.163530222721,-28.2909023222426,-5.36742679516834));
#962=CARTESIAN_POINT('Origin',(179.130845440247,-116.668654229675,-3.53098444016563));
#963=CARTESIAN_POINT('',(179.963024188822,-115.48122906133,-3.53098444016563));
#964=CARTESIAN_POINT('',(177.713530222721,-116.690902322243,-3.53098444016563));
#965=CARTESIAN_POINT('Origin',(179.163530222721,-116.690902322243,-3.53098444016563));
#966=CARTESIAN_POINT('',(178.331351474145,-117.878327490587,-3.53098444016563));
#967=CARTESIAN_POINT('Origin',(179.130845440247,-116.668654229675,-3.53098444016563));
#968=CARTESIAN_POINT('Origin',(179.163530222721,-116.690902322243,-3.53098444016563));
#969=CARTESIAN_POINT('Origin',(179.130845440247,-116.668654229675,12.4690155598344));
#970=CARTESIAN_POINT('',(179.963024188822,-115.48122906133,12.4690155598344));
#971=CARTESIAN_POINT('',(178.331351474145,-117.878327490587,12.4690155598344));
#972=CARTESIAN_POINT('Origin',(179.163530222721,-116.690902322243,-5.36742679516834));
#973=CARTESIAN_POINT('',(177.713530222721,-116.690902322243,-5.36742679516834));
#974=CARTESIAN_POINT('',(177.713530222721,-116.690902322243,-5.36742679516834));
#975=CARTESIAN_POINT('Origin',(179.163530222721,-116.690902322243,-5.36742679516834));
#976=CARTESIAN_POINT('Origin',(98.7808454402468,-116.668654229675,-3.53098444016563));
#977=CARTESIAN_POINT('',(99.9164166149423,-117.570307215696,-3.53098444016563));
#978=CARTESIAN_POINT('',(97.6279590480254,-115.789249336221,-3.53098444016563));
#979=CARTESIAN_POINT('Origin',(98.7635302227206,-116.690902322243,-3.53098444016563));
#980=CARTESIAN_POINT('Origin',(98.7808454402468,-116.668654229675,-3.53098444016563));
#981=CARTESIAN_POINT('Origin',(98.7808454402468,-116.668654229675,12.4690155598344));
#982=CARTESIAN_POINT('',(99.9164166149423,-117.570307215696,12.4690155598344));
#983=CARTESIAN_POINT('',(97.6279590480254,-115.789249336221,12.4690155598344));
#984=CARTESIAN_POINT('Origin',(98.7635302227206,-116.690902322243,-5.36742679516834));
#985=CARTESIAN_POINT('',(97.3135302227206,-116.690902322243,-5.36742679516834));
#986=CARTESIAN_POINT('',(97.3135302227206,-116.690902322243,-5.36742679516834));
#987=CARTESIAN_POINT('Origin',(98.7635302227206,-116.690902322243,-5.36742679516834));
#988=CARTESIAN_POINT('Origin',(98.7808454402468,-28.2186542296751,12.4690155598344));
#989=CARTESIAN_POINT('',(97.3625813817552,-27.9169473182679,-3.53098444016563));
#990=CARTESIAN_POINT('',(97.3625813817552,-27.9169473182679,12.4690155598344));
#991=CARTESIAN_POINT('',(100.181794281212,-28.5926092336496,-3.53098444016563));
#992=CARTESIAN_POINT('Origin',(98.7808454402468,-28.2186542296751,-3.53098444016563));
#993=CARTESIAN_POINT('',(100.181794281212,-28.5926092336496,12.4690155598344));
#994=CARTESIAN_POINT('Origin',(98.7808454402468,-28.2186542296751,-3.53098444016563));
#995=CARTESIAN_POINT('Origin',(98.7635302227206,-28.2909023222426,-3.53098444016563));
#996=CARTESIAN_POINT('Origin',(138.963530222721,-72.4909023222426,-2.36742679516834));
#997=CARTESIAN_POINT('',(174.163530222721,-111.690902322243,-2.36742679516834));
#998=CARTESIAN_POINT('',(103.763530222721,-111.690902322243,-2.36742679516834));
#999=CARTESIAN_POINT('',(156.563530222721,-111.690902322243,-2.36742679516834));
#1000=CARTESIAN_POINT('',(174.163530222721,-33.2909023222426,-2.36742679516834));
#1001=CARTESIAN_POINT('',(174.163530222721,-52.8909023222426,-2.36742679516834));
#1002=CARTESIAN_POINT('',(103.763530222721,-33.2909023222426,-2.36742679516834));
#1003=CARTESIAN_POINT('',(121.363530222721,-33.2909023222426,-2.36742679516834));
#1004=CARTESIAN_POINT('',(103.763530222721,-92.0909023222426,-2.36742679516834));
#1005=CARTESIAN_POINT('Origin',(103.763530222721,-33.2909023222426,-5.36742679516834));
#1006=CARTESIAN_POINT('',(174.163530222721,-33.2909023222426,-5.36742679516834));
#1007=CARTESIAN_POINT('',(103.763530222721,-33.2909023222426,-5.36742679516834));
#1008=CARTESIAN_POINT('Origin',(174.163530222721,-33.2909023222426,-5.36742679516834));
#1009=CARTESIAN_POINT('',(174.163530222721,-111.690902322243,-5.36742679516834));
#1010=CARTESIAN_POINT('Origin',(103.763530222721,-111.690902322243,-5.36742679516834));
#1011=CARTESIAN_POINT('',(103.763530222721,-111.690902322243,-5.36742679516834));
#1012=CARTESIAN_POINT('Origin',(174.163530222721,-111.690902322243,-5.36742679516834));
#1013=CARTESIAN_POINT('Origin',(98.7635302227206,-28.2909023222426,-5.36742679516834));
#1014=CARTESIAN_POINT('',(97.3135302227206,-28.2909023222426,-5.36742679516834));
#1015=CARTESIAN_POINT('',(97.3135302227206,-28.2909023222426,-5.36742679516834));
#1016=CARTESIAN_POINT('Origin',(98.7635302227206,-28.2909023222426,-5.36742679516834));
#1017=CARTESIAN_POINT('Origin',(138.963530222721,-72.4909023222426,-5.36742679516834));
#1018=UNCERTAINTY_MEASURE_WITH_UNIT(LENGTH_MEASURE(0.01),#1022,
'DISTANCE_ACCURACY_VALUE',
'Maximum model space distance between geometric entities at asserted c
onnectivities');
#1019=UNCERTAINTY_MEASURE_WITH_UNIT(LENGTH_MEASURE(0.01),#1022,
'DISTANCE_ACCURACY_VALUE',
'Maximum model space distance between geometric entities at asserted c
onnectivities');
#1020=(
GEOMETRIC_REPRESENTATION_CONTEXT(3)
GLOBAL_UNCERTAINTY_ASSIGNED_CONTEXT((#1018))
GLOBAL_UNIT_ASSIGNED_CONTEXT((#1022,#1023,#1024))
REPRESENTATION_CONTEXT('','3D')
);
#1021=(
GEOMETRIC_REPRESENTATION_CONTEXT(3)
GLOBAL_UNCERTAINTY_ASSIGNED_CONTEXT((#1019))
GLOBAL_UNIT_ASSIGNED_CONTEXT((#1022,#1023,#1024))
REPRESENTATION_CONTEXT('','3D')
);
#1022=(
LENGTH_UNIT()
NAMED_UNIT(*)
SI_UNIT(.MILLI.,.METRE.)
);
#1023=(
NAMED_UNIT(*)
PLANE_ANGLE_UNIT()
SI_UNIT($,.RADIAN.)
);
#1024=(
NAMED_UNIT(*)
SI_UNIT($,.STERADIAN.)
SOLID_ANGLE_UNIT()
);
#1025=SHAPE_DEFINITION_REPRESENTATION(#1026,#1027);
#1026=PRODUCT_DEFINITION_SHAPE('',$,#1029);
#1027=SHAPE_REPRESENTATION('',(#602),#1020);
#1028=PRODUCT_DEFINITION_CONTEXT('part definition',#1033,'design');
#1029=PRODUCT_DEFINITION('2026-03-27-12-24-17-172','Macro-final',#1030,
#1028);
#1030=PRODUCT_DEFINITION_FORMATION('',$,#1035);
#1031=PRODUCT_RELATED_PRODUCT_CATEGORY('Macro-final','Macro-final',(#1035));
#1032=APPLICATION_PROTOCOL_DEFINITION('international standard',
'automotive_design',2009,#1033);
#1033=APPLICATION_CONTEXT(
'Core Data for Automotive Mechanical Design Process');
#1034=PRODUCT_CONTEXT('part definition',#1033,'mechanical');
#1035=PRODUCT('2026-03-27-12-24-17-172','Macro-final',
'KiCad electronic assembly',(#1034));
#1036=PRESENTATION_STYLE_ASSIGNMENT((#1039));
#1037=PRESENTATION_STYLE_ASSIGNMENT((#1040));
#1038=PRESENTATION_STYLE_ASSIGNMENT((#1041));
#1039=SURFACE_STYLE_USAGE(.BOTH.,#1042);
#1040=SURFACE_STYLE_USAGE(.BOTH.,#1043);
#1041=SURFACE_STYLE_USAGE(.BOTH.,#1044);
#1042=SURFACE_SIDE_STYLE('',(#1045));
#1043=SURFACE_SIDE_STYLE('',(#1046));
#1044=SURFACE_SIDE_STYLE('',(#1047));
#1045=SURFACE_STYLE_FILL_AREA(#1048);
#1046=SURFACE_STYLE_FILL_AREA(#1049);
#1047=SURFACE_STYLE_FILL_AREA(#1050);
#1048=FILL_AREA_STYLE('Steel - Satin',(#1051));
#1049=FILL_AREA_STYLE(
'PA 12 - Nylon - PA 603-CF (with EOS P 3D Printers)',(#1052));
#1050=FILL_AREA_STYLE('Base material - Transparent',(#1053));
#1051=FILL_AREA_STYLE_COLOUR('Steel - Satin',#1054);
#1052=FILL_AREA_STYLE_COLOUR(
'PA 12 - Nylon - PA 603-CF (with EOS P 3D Printers)',#1055);
#1053=FILL_AREA_STYLE_COLOUR('Base material - Transparent',#1056);
#1054=COLOUR_RGB('Steel - Satin',0.627450980392157,0.627450980392157,0.627450980392157);
#1055=COLOUR_RGB('PA 12 - Nylon - PA 603-CF (with EOS P 3D Printers)',0.247058823529412,
0.247058823529412,0.247058823529412);
#1056=COLOUR_RGB('Base material - Transparent',0.701960784313725,0.701960784313725,
0.701960784313725);
ENDSEC;
END-ISO-10303-21;
